<svg width="45" height="45" viewBox="0 0 45 45" fill="none" xmlns="http://www.w3.org/2000/svg">
<path opacity="0.25" d="M22.0625 0C26.2159 0 30.2761 1.23163 33.7295 3.53914C37.1829 5.84665 39.8746 9.1264 41.464 12.9636C43.0534 16.8009 43.4693 21.0233 42.659 25.0969C41.8487 29.1705 39.8487 32.9123 36.9118 35.8492C33.9749 38.7861 30.233 40.7862 26.1594 41.5965C22.0858 42.4068 17.8634 41.9909 14.0262 40.4015C10.1889 38.812 6.90918 36.1204 4.60167 32.667C2.29416 29.2135 1.06253 25.1534 1.06253 21C1.06253 15.4305 3.27502 10.089 7.21329 6.15076C11.1515 2.21249 16.493 0 22.0625 0V0Z" fill="#19B159"/>
<g filter="url(#filter0_d_32004_15388)">
<path opacity="0.5" d="M22.0091 2C25.7563 2 29.4195 3.1112 32.5352 5.19307C35.651 7.27495 38.0794 10.234 39.5134 13.696C40.9474 17.1581 41.3226 20.9676 40.5916 24.6429C39.8605 28.3181 38.056 31.6941 35.4063 34.3438C32.7566 36.9935 29.3806 38.798 25.7054 39.5291C22.0301 40.2601 18.2206 39.8849 14.7585 38.4509C11.2965 37.0169 8.33745 34.5885 6.25557 31.4727C4.1737 28.357 3.0625 24.6938 3.0625 20.9466C3.0625 15.9216 5.05865 11.1025 8.61182 7.54932C12.165 3.99615 16.9841 2 22.0091 2V2Z" fill="#19B159"/>
</g>
<g filter="url(#filter1_d_32004_15388)">
<path d="M21.741 4C25.0396 4 28.2642 4.97817 31.007 6.81082C33.7497 8.64347 35.8875 11.2483 37.1498 14.2959C38.4122 17.3434 38.7424 20.6969 38.0989 23.9322C37.4554 27.1675 35.8669 30.1393 33.5344 32.4718C31.2019 34.8043 28.2301 36.3928 24.9948 37.0363C21.7595 37.6799 18.406 37.3496 15.3584 36.0873C12.3108 34.8249 9.70603 32.6872 7.87338 29.9444C6.04073 27.2017 5.06256 23.9771 5.06256 20.6784C5.06256 16.255 6.81975 12.0128 9.94755 8.88499C13.0754 5.75718 17.3176 4 21.741 4V4Z" fill="#19B159"/>
</g>
<g filter="url(#filter2_d_32004_15388)">
<path d="M22.0625 36C30.3468 36 37.0625 29.2843 37.0625 21C37.0625 12.7157 30.3468 6 22.0625 6C13.7783 6 7.06253 12.7157 7.06253 21C7.06253 29.2843 13.7783 36 22.0625 36Z" fill="black"/>
</g>
<path d="M14.7666 17.9258C14.9025 13.5408 16.6179 9.98233 22.4565 9.98233C28.2951 9.98233 29.7191 13.5387 29.7191 17.9258C29.7191 26.566 30.5347 26.566 22.4565 26.566C14.7666 26.566 14.4948 26.702 14.7666 17.9258Z" fill="url(#paint0_linear_32004_15388)"/>
<mask id="mask0_32004_15388" style="mask-type:alpha" maskUnits="userSpaceOnUse" x="14" y="9" width="16" height="18">
<path d="M14.7667 17.9262C14.7667 13.5391 16.6179 9.98269 22.4565 9.98269C28.2952 9.98269 29.7192 13.5391 29.7192 17.9262C29.7192 26.5664 29.7192 26.5664 22.4566 26.5664C14.7667 26.5664 14.7667 26.5664 14.7667 17.9262Z" fill="#806B00"/>
</mask>
<g mask="url(#mask0_32004_15388)">
<path d="M18.3686 18.4974C19.2101 19.7442 21.0577 20.7571 22.6588 20.6181C24.2599 20.4792 25.5193 19.7833 26.0257 18.8595" stroke="#423400" stroke-width="1.05534" stroke-linecap="round" stroke-linejoin="round"/>
<path fill-rule="evenodd" clip-rule="evenodd" d="M21.1392 14.8248C21.2894 14.8248 21.4111 14.9465 21.4111 15.0967C21.4111 15.2366 21.3574 15.3697 21.2951 15.4771C21.2304 15.5887 21.1428 15.6961 21.0446 15.7895C20.8583 15.9666 20.5822 16.1408 20.2921 16.1408C20.0383 16.1408 19.7627 16.0405 19.5499 15.8899C19.3429 15.7434 19.1331 15.5021 19.1331 15.1897C19.1331 15.0396 19.2549 14.9178 19.405 14.9178C19.5552 14.9178 19.6769 15.0396 19.6769 15.1897C19.6769 15.2471 19.7219 15.3455 19.8641 15.4461C20.0005 15.5427 20.1685 15.5971 20.2921 15.5971C20.3795 15.5971 20.5269 15.5314 20.6699 15.3955C20.7362 15.3324 20.7896 15.265 20.8247 15.2044C20.8624 15.1395 20.8674 15.103 20.8674 15.0967C20.8674 14.9465 20.9891 14.8248 21.1392 14.8248Z" fill="#423400"/>
<path fill-rule="evenodd" clip-rule="evenodd" d="M23.1678 14.6046C23.318 14.6046 23.4397 14.7263 23.4397 14.8765C23.4397 15.0063 23.5164 15.1671 23.6679 15.3047C23.8182 15.4412 24.0039 15.5193 24.1612 15.5193C24.2907 15.5193 24.4276 15.4435 24.5436 15.2994C24.6613 15.1532 24.7189 14.9829 24.7189 14.8765C24.7189 14.7263 24.8406 14.6046 24.9907 14.6046C25.1409 14.6046 25.2626 14.7263 25.2626 14.8765C25.2626 15.133 25.1445 15.42 24.9671 15.6404C24.7879 15.863 24.51 16.063 24.1612 16.063C23.8401 16.063 23.5292 15.9133 23.3023 15.7072C23.0767 15.5022 22.896 15.2057 22.896 14.8765C22.896 14.7263 23.0177 14.6046 23.1678 14.6046Z" fill="#423400"/>
<path d="M26.1847 26.4301C29.1752 24.7989 30.3986 11.4776 22.7864 9.84637L25.505 9.03077C26.1847 8.98546 27.9246 9.1667 29.4471 10.2542C31.3501 11.6135 31.622 12.2931 33.9328 14.604C36.2437 16.9148 38.1467 19.2257 38.4186 22.488C38.6905 25.7504 38.4186 28.4691 38.2827 29.8284C38.1467 31.1877 19.4468 30.1053 26.1847 26.4301Z" fill="url(#paint1_linear_32004_15388)"/>
<path d="M16.9418 12.022C17.7574 10.9345 18.8448 10.3908 21.6994 9.43928L24.1461 8.07996C22.6508 8.21589 17.4039 10.0374 8.37803 16.2359C-2.90434 23.984 7.01871 21.8091 7.56244 23.984C8.10616 26.1589 10.5529 28.4698 15.7184 30.3728C20.8838 32.2759 23.6043 27.4387 18.7088 26.4308C14.087 25.4793 16.1262 13.1094 16.9418 12.022Z" fill="url(#paint2_linear_32004_15388)"/>
</g>
<g filter="url(#filter3_d_32004_15388)">
<path d="M15.1124 22.5909C14.9682 23.054 14.6487 23.5938 14.2225 23.7111C13.6932 23.8567 13.0226 23.506 12.5912 23.3716" stroke="#202020" stroke-width="1.58301"/>
</g>
<path d="M12.0787 23.909C12.5462 23.909 12.9253 23.53 12.9253 23.0624C12.9253 22.5948 12.5462 22.2158 12.0787 22.2158C11.6111 22.2158 11.2321 22.5948 11.2321 23.0624C11.2321 23.53 11.6111 23.909 12.0787 23.909Z" fill="#F8D000"/>
<g filter="url(#filter4_d_32004_15388)">
<path d="M29.3738 22.5901C29.5181 23.0532 29.8375 23.5929 30.2637 23.7102C30.793 23.8559 31.4637 23.5051 31.895 23.3707" stroke="#202020" stroke-width="1.58301"/>
</g>
<path d="M32.4695 23.9085C32.0019 23.9085 31.6229 23.5295 31.6229 23.0619C31.6229 22.5944 32.0019 22.2153 32.4695 22.2153C32.937 22.2153 33.316 22.5944 33.316 23.0619C33.316 23.5295 32.937 23.9085 32.4695 23.9085Z" fill="#F8D000"/>
<g filter="url(#filter5_d_32004_15388)">
<mask id="mask1_32004_15388" style="mask-type:alpha" maskUnits="userSpaceOnUse" x="14" y="22" width="16" height="7">
<path d="M14.7668 22.4887C14.8795 28.1979 15.6162 28.1979 22.39 28.1979C28.7875 28.1979 29.6129 28.1979 29.7193 22.4887C28.9456 22.67 26.4358 23.0325 22.5865 23.0325C18.7372 23.0325 15.8152 22.67 14.7668 22.4887Z" fill="#4E3F09"/>
</mask>
<g mask="url(#mask1_32004_15388)">
<rect x="14.7668" y="22.2173" width="14.9525" height="6.52474" fill="#202020"/>
</g>
</g>
<path d="M27.5591 24.9012C27.6154 24.9621 27.6584 25.034 27.6855 25.1124C27.7126 25.1907 27.7232 25.2739 27.7165 25.3565V26.1863H27.5262V25.3737C27.5355 25.2501 27.4958 25.1278 27.4156 25.0333C27.373 24.9932 27.3228 24.962 27.268 24.9415C27.2132 24.9211 27.1548 24.9118 27.0964 24.9142C27.0293 24.9103 26.9622 24.9204 26.8992 24.9438C26.8362 24.9672 26.7788 25.0034 26.7305 25.0501C26.6836 25.101 26.6475 25.1607 26.6241 25.2257C26.6008 25.2908 26.5907 25.3598 26.5945 25.4288V26.1819H26.4042V24.7481H26.5915V25.0118C26.6445 24.9242 26.7212 24.8534 26.8128 24.8076C26.9128 24.7567 27.024 24.7318 27.1361 24.7353C27.2925 24.7374 27.4429 24.7963 27.5591 24.9012V24.9012ZM20.0875 25.8456L20.2065 25.9606C20.142 26.0339 20.0621 26.092 19.9725 26.1308C19.8712 26.1772 19.7605 26.1991 19.6492 26.1947C19.5075 26.1993 19.3674 26.1639 19.2449 26.0925C19.1378 26.0308 19.0496 25.941 18.9897 25.8328C18.9296 25.7205 18.8975 25.5953 18.8961 25.4679C18.8946 25.3406 18.9238 25.2147 18.9812 25.101C19.0365 24.9912 19.1222 24.8997 19.2281 24.8373C19.3387 24.7714 19.4653 24.7375 19.594 24.7394C19.7206 24.7346 19.8459 24.7656 19.9556 24.8288C20.0624 24.8896 20.1495 24.9797 20.2065 25.0885C20.2682 25.2079 20.2975 25.3413 20.2916 25.4756H19.0832C19.081 25.5608 19.0996 25.6453 19.1375 25.7217C19.1754 25.7981 19.2315 25.8641 19.3007 25.9138C19.4023 25.9863 19.5247 26.0236 19.6495 26.0202C19.731 26.0277 19.8132 26.0159 19.8893 25.9856C19.9654 25.9554 20.0333 25.9076 20.0875 25.8462V25.8456ZM19.2409 25.0542C19.164 25.1335 19.1135 25.2345 19.0962 25.3435H20.1046C20.0879 25.2152 20.0224 25.0983 19.9216 25.0172C19.8333 24.9479 19.7234 24.9118 19.6111 24.9153C19.5431 24.9117 19.4751 24.9223 19.4114 24.9463C19.3477 24.9703 19.2896 25.0072 19.2409 25.0548V25.0542ZM21.7385 24.7552L21.1002 26.189H20.9001L20.2661 24.7552H20.4662L21.0023 25.9764L21.5427 24.7552H21.7385ZM22.0704 26.1082C21.9611 26.0479 21.8711 25.9579 21.8108 25.8486C21.7494 25.7334 21.7172 25.6048 21.7172 25.4742C21.7172 25.3437 21.7494 25.2151 21.8108 25.0999C21.8711 24.9906 21.9611 24.9006 22.0704 24.8403C22.1851 24.7795 22.313 24.7477 22.4428 24.7477C22.5726 24.7477 22.7004 24.7795 22.8151 24.8403C22.9253 24.8994 23.0156 24.9897 23.0747 25.0999C23.1361 25.2151 23.1683 25.3437 23.1683 25.4742C23.1683 25.6048 23.1361 25.7334 23.0747 25.8486C23.0156 25.9588 22.9253 26.0491 22.8151 26.1082C22.7004 26.169 22.5725 26.2007 22.4428 26.2007C22.313 26.2007 22.1851 26.169 22.0704 26.1082V26.1082ZM22.7172 25.9593C22.7969 25.913 22.8619 25.8452 22.9045 25.7635C22.95 25.6739 22.9733 25.5747 22.9725 25.4742C22.9737 25.3737 22.9504 25.2744 22.9045 25.185C22.8617 25.1034 22.7968 25.0356 22.7172 24.9892C22.6331 24.9431 22.5387 24.9189 22.4428 24.9189C22.3468 24.9189 22.2524 24.9431 22.1683 24.9892C22.0879 25.0355 22.022 25.1033 21.978 25.185C21.9306 25.2739 21.9072 25.3736 21.91 25.4742C21.9088 25.5748 21.9321 25.6741 21.978 25.7635C22.022 25.8452 22.0879 25.913 22.1683 25.9593C22.2522 26.0057 22.3465 26.0302 22.4423 26.0306C22.5382 26.0309 22.6327 26.0072 22.7169 25.9614L22.7172 25.9593ZM23.7043 26.1082C23.5939 26.0481 23.5025 25.9581 23.4406 25.8486C23.376 25.7331 23.3437 25.6022 23.3471 25.4699C23.3437 25.3389 23.376 25.2095 23.4406 25.0955C23.5025 24.986 23.5939 24.8961 23.7043 24.8359C23.8206 24.7732 23.9509 24.741 24.083 24.7424C24.1978 24.7405 24.3114 24.7652 24.415 24.8147C24.5105 24.862 24.5903 24.936 24.6447 25.0276L24.5001 25.1254C24.4567 25.0571 24.3947 25.0025 24.3215 24.968C24.2475 24.9317 24.1657 24.9141 24.0833 24.9169C23.9855 24.9157 23.8889 24.9392 23.8025 24.9852C23.722 25.0314 23.6561 25.0992 23.6122 25.1809C23.5648 25.2698 23.5413 25.3695 23.5442 25.4702C23.5429 25.5721 23.5662 25.6728 23.6122 25.7638C23.6561 25.8455 23.722 25.9133 23.8025 25.9595C23.8882 26.0073 23.9853 26.0308 24.0833 26.0275C24.1654 26.0273 24.2465 26.0099 24.3215 25.9764C24.3947 25.9419 24.4567 25.8873 24.5001 25.819L24.6447 25.9168C24.589 26.0075 24.5096 26.0811 24.415 26.1297C24.3128 26.1788 24.2007 26.2035 24.0874 26.202C23.9539 26.2044 23.8219 26.1727 23.7041 26.1099L23.7043 26.1082ZM25.1126 26.1082C25.0033 26.0479 24.9133 25.9579 24.853 25.8486C24.7889 25.7342 24.7552 25.6053 24.7551 25.4742C24.7517 25.3433 24.784 25.2139 24.8486 25.0999C24.9093 24.9895 25.001 24.8992 25.1123 24.8403C25.227 24.7795 25.3548 24.7477 25.4846 24.7477C25.6144 24.7477 25.7423 24.7795 25.857 24.8403C25.9672 24.8994 26.0575 24.9897 26.1166 25.0999C26.178 25.2151 26.2101 25.3437 26.2101 25.4742C26.2101 25.6048 26.178 25.7334 26.1166 25.8486C26.0575 25.9588 25.9672 26.0491 25.857 26.1082C25.7423 26.169 25.6144 26.2008 25.4846 26.2008C25.3548 26.2008 25.227 26.169 25.1123 26.1082H25.1126ZM25.7594 25.9593C25.8391 25.913 25.904 25.8452 25.9467 25.7635C25.9921 25.6739 26.0154 25.5747 26.0146 25.4742C26.0159 25.3737 25.9926 25.2744 25.9467 25.185C25.9039 25.1034 25.839 25.0356 25.7594 24.9892C25.6752 24.9431 25.5808 24.9189 25.4849 24.9189C25.389 24.9189 25.2946 24.9431 25.2105 24.9892C25.13 25.0355 25.0641 25.1033 25.0202 25.185C24.9728 25.2739 24.9493 25.3736 24.9522 25.4742C24.9509 25.5748 24.9743 25.6741 25.0202 25.7635C25.0641 25.8452 25.13 25.913 25.2105 25.9593C25.2944 26.0057 25.3887 26.0303 25.4846 26.0306C25.5806 26.031 25.6751 26.0072 25.7594 25.9614V25.9593Z" fill="white"/>
<path d="M18.258 24.7422H16.9177V24.9379H18.258V24.7422Z" fill="url(#paint3_linear_32004_15388)"/>
<path d="M17.8113 25.3732H16.9177V25.5689H17.8113V25.3732Z" fill="url(#paint4_linear_32004_15388)"/>
<path d="M18.258 26.0077H16.9177V26.2034H18.258V26.0077Z" fill="url(#paint5_linear_32004_15388)"/>
<rect x="24.2823" y="27.3813" width="2.17491" height="1.35932" rx="0.679661" fill="#35322F"/>
<rect x="18.3015" y="27.3813" width="2.17491" height="1.35932" rx="0.679661" fill="#35322F"/>
<ellipse cx="22.2434" cy="31.7242" rx="7.47626" ry="1.08746" fill="white" fill-opacity="0.1"/>
<defs>
<filter id="filter0_d_32004_15388" x="-2.38419e-07" y="0.46875" width="44.0182" height="44.0181" filterUnits="userSpaceOnUse" color-interpolation-filters="sRGB">
<feFlood flood-opacity="0" result="BackgroundImageFix"/>
<feColorMatrix in="SourceAlpha" type="matrix" values="0 0 0 0 0 0 0 0 0 0 0 0 0 0 0 0 0 0 127 0" result="hardAlpha"/>
<feOffset dy="1.53125"/>
<feGaussianBlur stdDeviation="1.53125"/>
<feColorMatrix type="matrix" values="0 0 0 0 0 0 0 0 0 0 0 0 0 0 0 0 0 0 0.161 0"/>
<feBlend mode="normal" in2="BackgroundImageFix" result="effect1_dropShadow_32004_15388"/>
<feBlend mode="normal" in="SourceGraphic" in2="effect1_dropShadow_32004_15388" result="shape"/>
</filter>
<filter id="filter1_d_32004_15388" x="2.00006" y="2.46875" width="39.4818" height="39.4819" filterUnits="userSpaceOnUse" color-interpolation-filters="sRGB">
<feFlood flood-opacity="0" result="BackgroundImageFix"/>
<feColorMatrix in="SourceAlpha" type="matrix" values="0 0 0 0 0 0 0 0 0 0 0 0 0 0 0 0 0 0 127 0" result="hardAlpha"/>
<feOffset dy="1.53125"/>
<feGaussianBlur stdDeviation="1.53125"/>
<feColorMatrix type="matrix" values="0 0 0 0 0 0 0 0 0 0 0 0 0 0 0 0 0 0 0.161 0"/>
<feBlend mode="normal" in2="BackgroundImageFix" result="effect1_dropShadow_32004_15388"/>
<feBlend mode="normal" in="SourceGraphic" in2="effect1_dropShadow_32004_15388" result="shape"/>
</filter>
<filter id="filter2_d_32004_15388" x="4.00003" y="4.46875" width="36.125" height="36.125" filterUnits="userSpaceOnUse" color-interpolation-filters="sRGB">
<feFlood flood-opacity="0" result="BackgroundImageFix"/>
<feColorMatrix in="SourceAlpha" type="matrix" values="0 0 0 0 0 0 0 0 0 0 0 0 0 0 0 0 0 0 127 0" result="hardAlpha"/>
<feOffset dy="1.53125"/>
<feGaussianBlur stdDeviation="1.53125"/>
<feColorMatrix type="matrix" values="0 0 0 0 0 0 0 0 0 0 0 0 0 0 0 0 0 0 0.565 0"/>
<feBlend mode="normal" in2="BackgroundImageFix" result="effect1_dropShadow_32004_15388"/>
<feBlend mode="normal" in="SourceGraphic" in2="effect1_dropShadow_32004_15388" result="shape"/>
</filter>
<filter id="filter3_d_32004_15388" x="9.18973" y="19.1896" width="9.84439" height="8.51367" filterUnits="userSpaceOnUse" color-interpolation-filters="sRGB">
<feFlood flood-opacity="0" result="BackgroundImageFix"/>
<feColorMatrix in="SourceAlpha" type="matrix" values="0 0 0 0 0 0 0 0 0 0 0 0 0 0 0 0 0 0 127 0" result="hardAlpha"/>
<feOffset/>
<feGaussianBlur stdDeviation="1.58301"/>
<feColorMatrix type="matrix" values="0 0 0 0 0 0 0 0 0 0 0 0 0 0 0 0 0 0 0.25 0"/>
<feBlend mode="normal" in2="BackgroundImageFix" result="effect1_dropShadow_32004_15388"/>
<feBlend mode="normal" in="SourceGraphic" in2="effect1_dropShadow_32004_15388" result="shape"/>
</filter>
<filter id="filter4_d_32004_15388" x="25.4521" y="19.1887" width="9.84439" height="8.51367" filterUnits="userSpaceOnUse" color-interpolation-filters="sRGB">
<feFlood flood-opacity="0" result="BackgroundImageFix"/>
<feColorMatrix in="SourceAlpha" type="matrix" values="0 0 0 0 0 0 0 0 0 0 0 0 0 0 0 0 0 0 127 0" result="hardAlpha"/>
<feOffset/>
<feGaussianBlur stdDeviation="1.58301"/>
<feColorMatrix type="matrix" values="0 0 0 0 0 0 0 0 0 0 0 0 0 0 0 0 0 0 0.25 0"/>
<feBlend mode="normal" in2="BackgroundImageFix" result="effect1_dropShadow_32004_15388"/>
<feBlend mode="normal" in="SourceGraphic" in2="effect1_dropShadow_32004_15388" result="shape"/>
</filter>
<filter id="filter5_d_32004_15388" x="11.6008" y="19.3226" width="21.2845" height="12.0413" filterUnits="userSpaceOnUse" color-interpolation-filters="sRGB">
<feFlood flood-opacity="0" result="BackgroundImageFix"/>
<feColorMatrix in="SourceAlpha" type="matrix" values="0 0 0 0 0 0 0 0 0 0 0 0 0 0 0 0 0 0 127 0" result="hardAlpha"/>
<feOffset/>
<feGaussianBlur stdDeviation="1.58301"/>
<feColorMatrix type="matrix" values="0 0 0 0 0 0 0 0 0 0 0 0 0 0 0 0 0 0 0.25 0"/>
<feBlend mode="normal" in2="BackgroundImageFix" result="effect1_dropShadow_32004_15388"/>
<feBlend mode="normal" in="SourceGraphic" in2="effect1_dropShadow_32004_15388" result="shape"/>
</filter>
<linearGradient id="paint0_linear_32004_15388" x1="25.777" y1="21.4006" x2="19.6601" y2="11.3416" gradientUnits="userSpaceOnUse">
<stop stop-color="#FFC700"/>
<stop offset="1" stop-color="#FFD600"/>
</linearGradient>
<linearGradient id="paint1_linear_32004_15388" x1="32.0298" y1="10.3901" x2="25.9129" y2="16.507" gradientUnits="userSpaceOnUse">
<stop stop-color="#E99312"/>
<stop offset="1" stop-color="#E99312" stop-opacity="0"/>
</linearGradient>
<linearGradient id="paint2_linear_32004_15388" x1="13.6793" y1="17.7311" x2="16.5339" y2="19.4983" gradientUnits="userSpaceOnUse">
<stop stop-color="#FFE146"/>
<stop offset="1" stop-color="#FFE146" stop-opacity="0"/>
</linearGradient>
<linearGradient id="paint3_linear_32004_15388" x1="16.9136" y1="38.7973" x2="18.2593" y2="38.7973" gradientUnits="userSpaceOnUse">
<stop stop-color="#2ECC71"/>
<stop offset="1" stop-color="#1B7943"/>
</linearGradient>
<linearGradient id="paint4_linear_32004_15388" x1="16.9257" y1="39.4284" x2="18.2392" y2="39.4162" gradientUnits="userSpaceOnUse">
<stop stop-color="#FFD600"/>
<stop offset="1" stop-color="#E01C21"/>
</linearGradient>
<linearGradient id="paint5_linear_32004_15388" x1="16.9136" y1="40.0628" x2="18.2593" y2="40.0628" gradientUnits="userSpaceOnUse">
<stop stop-color="#2ECC71"/>
<stop offset="1" stop-color="#1B7943"/>
</linearGradient>
</defs>
</svg>
