<svg width="24" height="24" viewBox="0 0 24 24" fill="none" xmlns="http://www.w3.org/2000/svg">
<path fill-rule="evenodd" clip-rule="evenodd" d="M11.5 2C6.81 2 3 5.81 3 10.5C3 15.19 6.81 19 11.5 19H12V22C16.86 19.66 20 15 20 10.5C20 5.81 16.19 2 11.5 2ZM10.5 16.5V14.5H12.5V16.5H10.5ZM12.2704 9.82167C11.4421 10.4566 10.5 11.1787 10.5 13H12.5C12.5 11.9046 13.211 11.2833 13.9408 10.6455C14.71 9.97332 15.5 9.28292 15.5 8C15.5 5.79 13.71 4 11.5 4C9.29 4 7.5 5.79 7.5 8H9.5C9.5 6.9 10.4 6 11.5 6C12.6 6 13.5 6.9 13.5 8C13.5 8.87922 12.9202 9.32361 12.2704 9.82167Z" fill="#2ECC71"/>
</svg>
