<svg width="48" height="48" viewBox="0 0 48 48" fill="none" xmlns="http://www.w3.org/2000/svg">
<rect width="48" height="48" rx="4" fill="#2ECC71" fill-opacity="0.12"/>
<path d="M17.1733 18.2222C16.5333 18.2222 16 17.6162 16 16.8889C16 16.1616 16.5333 15.5556 17.1733 15.5556H30.8267C31.4667 15.5556 32 16.1616 32 16.8889C32 17.6162 31.4667 18.2222 30.8267 18.2222H17.1733Z" fill="#0AAC00"/>
<path d="M17.1733 25.3333C16.5333 25.3333 16 24.6984 16 24.0635C16 23.3016 16.5333 22.6667 17.1733 22.6667H25.6C26.1333 22.6667 26.6667 23.3016 26.6667 24.0635C26.6667 24.6984 26.1333 25.3333 25.6 25.3333H17.1733Z" fill="#F28A0D"/>
<path d="M17.1656 32.4444C16.5298 32.4444 16 31.8384 16 31.1111C16 30.3838 16.5298 29.7778 17.1656 29.7778H30.8344C31.4702 29.7778 32 30.3838 32 31.1111C32 31.8384 31.4702 32.4444 30.8344 32.4444H17.1656Z" fill="#0AAC00"/>
</svg>
